<?xml version="1.0" encoding="utf-8"?>
<!-- Generator: Adobe Illustrator 26.4.1, SVG Export Plug-In . SVG Version: 6.00 Build 0)  -->
<svg version="1.1" id="Capa_1" xmlns="http://www.w3.org/2000/svg" xmlns:xlink="http://www.w3.org/1999/xlink" x="0px" y="0px"
	 viewBox="0 0 16 16" style="enable-background:new 0 0 16 16;" xml:space="preserve">
<style type="text/css">
	.st0{fill:#198754;}
	.st1{fill:#F4F4F4;}
</style>
<rect x="-3.1" y="-0.3" class="st0" width="21.4" height="18"/>
<path class="st1" d="M11.8,15c1.9,0,3.5-1.6,3.5-3.5S13.7,8,11.8,8s-3.5,1.6-3.5,3.5S9.9,15,11.8,15z M12.3,10v1h1
	c0.3,0,0.5,0.2,0.5,0.5S13.6,12,13.3,12h-1v1c0,0.3-0.2,0.5-0.5,0.5s-0.5-0.2-0.5-0.5v-1h-1c-0.3,0-0.5-0.2-0.5-0.5S10,11,10.3,11h1
	v-1c0-0.3,0.2-0.5,0.5-0.5S12.3,9.7,12.3,10z M10.3,4c0,1.7-1.3,3-3,3s-3-1.3-3-3s1.3-3,3-3S10.3,2.3,10.3,4z M7.3,6
	c1.1,0,2-0.9,2-2s-0.9-2-2-2s-2,0.9-2,2S6.2,6,7.3,6z"/>
<path class="st1" d="M7.6,13c-0.1-0.3-0.2-0.7-0.2-1h-5c0-0.2,0.2-1,0.8-1.7C3.8,9.7,5,9,7.3,9C7.6,9,7.8,9,8,9
	c0.2-0.3,0.5-0.6,0.8-0.9C8.4,8,7.9,8,7.3,8c-5,0-6,3-6,4s1,1,1,1S7.6,13,7.6,13z"/>
</svg>
