<?xml version="1.0" encoding="UTF-8"?>
<svg id="Capa_1" data-name="Capa 1" xmlns="http://www.w3.org/2000/svg" viewBox="0 0 13.07 12.86">
  <defs>
    <style>
      .cls-1 {
        fill: #198754;
      }
    </style>
  </defs>
  <path class="cls-1" d="M9.81,12.86c1.77,0,3.27-1.47,3.27-3.22s-1.49-3.22-3.27-3.22-3.27,1.47-3.27,3.22,1.49,3.22,3.27,3.22Zm.47-4.59v.92h.93c.28,0,.47,.18,.47,.46s-.19,.46-.47,.46h-.93v.92c0,.28-.19,.46-.47,.46s-.47-.18-.47-.46v-.92h-.93c-.28,0-.47-.18-.47-.46s.19-.46,.47-.46h.93v-.92c0-.28,.19-.46,.47-.46s.47,.18,.47,.46Zm-1.87-5.51c0,1.56-1.21,2.76-2.8,2.76s-2.8-1.19-2.8-2.76S4.02,0,5.6,0s2.8,1.19,2.8,2.76Zm-2.8,1.84c1.03,0,1.87-.83,1.87-1.84s-.84-1.84-1.87-1.84-1.87,.83-1.87,1.84,.84,1.84,1.87,1.84Z"/>
  <path class="cls-1" d="M5.88,11.02c-.09-.28-.19-.64-.19-.92H1.03c0-.18,.19-.92,.75-1.56,.56-.55,1.68-1.19,3.83-1.19h.65c.19-.28,.47-.55,.75-.83-.37-.09-.84-.09-1.4-.09C.93,6.43,0,9.19,0,10.11s.93,.92,.93,.92H5.88Z"/>
</svg>